name C:\Users\u0101727\Documents\MyRepositories\upper-imu-dc\OpenSim\subject0\MA\MA_Splines\angle_in_n6_dof6_1.mot
datacolumns 7
datarows 60
range 125.01000000 125.60000000
endheader 
time	clav_prot	clav_elev	scapula_abduction	scapula_elevation	scapula_upward_rot	scapula_winging	
        125.01000000	        -33.36984042	         -2.74924671	         11.28790885	          1.12405674	         54.58874201	         -8.57402492	
        125.02000000	        -27.88187210	         -2.74924671	         11.28790885	          1.12405674	         54.58874201	         -8.57402492	
        125.03000000	        -22.39390379	         -2.74924671	         11.28790885	          1.12405674	         54.58874201	         -8.57402492	
        125.04000000	        -16.90593547	         -2.74924671	         11.28790885	          1.12405674	         54.58874201	         -8.57402492	
        125.05000000	        -44.34577705	          2.15399008	         11.28790885	          1.12405674	         54.58874201	         -8.57402492	
        125.06000000	        -38.85780873	          2.15399008	         11.28790885	          1.12405674	         54.58874201	         -8.57402492	
        125.07000000	        -33.36984042	          2.15399008	         11.28790885	          1.12405674	         54.58874201	         -8.57402492	
        125.08000000	        -27.88187210	          2.15399008	         11.28790885	          1.12405674	         54.58874201	         -8.57402492	
        125.09000000	        -22.39390379	          2.15399008	         11.28790885	          1.12405674	         54.58874201	         -8.57402492	
        125.10000000	        -16.90593547	          2.15399008	         11.28790885	          1.12405674	         54.58874201	         -8.57402492	
        125.11000000	        -44.34577705	          7.05722688	         11.28790885	          1.12405674	         54.58874201	         -8.57402492	
        125.12000000	        -38.85780873	          7.05722688	         11.28790885	          1.12405674	         54.58874201	         -8.57402492	
        125.13000000	        -33.36984042	          7.05722688	         11.28790885	          1.12405674	         54.58874201	         -8.57402492	
        125.14000000	        -27.88187210	          7.05722688	         11.28790885	          1.12405674	         54.58874201	         -8.57402492	
        125.15000000	        -22.39390379	          7.05722688	         11.28790885	          1.12405674	         54.58874201	         -8.57402492	
        125.16000000	        -16.90593547	          7.05722688	         11.28790885	          1.12405674	         54.58874201	         -8.57402492	
        125.17000000	        -44.34577705	         11.96046367	         11.28790885	          1.12405674	         54.58874201	         -8.57402492	
        125.18000000	        -38.85780873	         11.96046367	         11.28790885	          1.12405674	         54.58874201	         -8.57402492	
        125.19000000	        -33.36984042	         11.96046367	         11.28790885	          1.12405674	         54.58874201	         -8.57402492	
        125.20000000	        -27.88187210	         11.96046367	         11.28790885	          1.12405674	         54.58874201	         -8.57402492	
        125.21000000	        -22.39390379	         11.96046367	         11.28790885	          1.12405674	         54.58874201	         -8.57402492	
        125.22000000	        -16.90593547	         11.96046367	         11.28790885	          1.12405674	         54.58874201	         -8.57402492	
        125.23000000	        -44.34577705	         16.86370047	         11.28790885	          1.12405674	         54.58874201	         -8.57402492	
        125.24000000	        -38.85780873	         16.86370047	         11.28790885	          1.12405674	         54.58874201	         -8.57402492	
        125.25000000	        -33.36984042	         16.86370047	         11.28790885	          1.12405674	         54.58874201	         -8.57402492	
        125.26000000	        -27.88187210	         16.86370047	         11.28790885	          1.12405674	         54.58874201	         -8.57402492	
        125.27000000	        -22.39390379	         16.86370047	         11.28790885	          1.12405674	         54.58874201	         -8.57402492	
        125.28000000	        -16.90593547	         16.86370047	         11.28790885	          1.12405674	         54.58874201	         -8.57402492	
        125.29000000	        -44.34577705	         -7.65248351	        -30.88730313	          4.10553212	         54.58874201	         -8.57402492	
        125.30000000	        -38.85780873	         -7.65248351	        -30.88730313	          4.10553212	         54.58874201	         -8.57402492	
        125.31000000	        -33.36984042	         -7.65248351	        -30.88730313	          4.10553212	         54.58874201	         -8.57402492	
        125.32000000	        -27.88187210	         -7.65248351	        -30.88730313	          4.10553212	         54.58874201	         -8.57402492	
        125.33000000	        -22.39390379	         -7.65248351	        -30.88730313	          4.10553212	         54.58874201	         -8.57402492	
        125.34000000	        -16.90593547	         -7.65248351	        -30.88730313	          4.10553212	         54.58874201	         -8.57402492	
        125.35000000	        -44.34577705	         -2.74924671	        -30.88730313	          4.10553212	         54.58874201	         -8.57402492	
        125.36000000	        -38.85780873	         -2.74924671	        -30.88730313	          4.10553212	         54.58874201	         -8.57402492	
        125.37000000	        -33.36984042	         -2.74924671	        -30.88730313	          4.10553212	         54.58874201	         -8.57402492	
        125.38000000	        -27.88187210	         -2.74924671	        -30.88730313	          4.10553212	         54.58874201	         -8.57402492	
        125.39000000	        -22.39390379	         -2.74924671	        -30.88730313	          4.10553212	         54.58874201	         -8.57402492	
        125.40000000	        -16.90593547	         -2.74924671	        -30.88730313	          4.10553212	         54.58874201	         -8.57402492	
        125.41000000	        -44.34577705	          2.15399008	        -30.88730313	          4.10553212	         54.58874201	         -8.57402492	
        125.42000000	        -38.85780873	          2.15399008	        -30.88730313	          4.10553212	         54.58874201	         -8.57402492	
        125.43000000	        -33.36984042	          2.15399008	        -30.88730313	          4.10553212	         54.58874201	         -8.57402492	
        125.44000000	        -27.88187210	          2.15399008	        -30.88730313	          4.10553212	         54.58874201	         -8.57402492	
        125.45000000	        -22.39390379	          2.15399008	        -30.88730313	          4.10553212	         54.58874201	         -8.57402492	
        125.46000000	        -16.90593547	          2.15399008	        -30.88730313	          4.10553212	         54.58874201	         -8.57402492	
        125.47000000	        -44.34577705	          7.05722688	        -30.88730313	          4.10553212	         54.58874201	         -8.57402492	
        125.48000000	        -38.85780873	          7.05722688	        -30.88730313	          4.10553212	         54.58874201	         -8.57402492	
        125.49000000	        -33.36984042	          7.05722688	        -30.88730313	          4.10553212	         54.58874201	         -8.57402492	
        125.50000000	        -27.88187210	          7.05722688	        -30.88730313	          4.10553212	         54.58874201	         -8.57402492	
        125.51000000	        -22.39390379	          7.05722688	        -30.88730313	          4.10553212	         54.58874201	         -8.57402492	
        125.52000000	        -16.90593547	          7.05722688	        -30.88730313	          4.10553212	         54.58874201	         -8.57402492	
        125.53000000	        -44.34577705	         11.96046367	        -30.88730313	          4.10553212	         54.58874201	         -8.57402492	
        125.54000000	        -38.85780873	         11.96046367	        -30.88730313	          4.10553212	         54.58874201	         -8.57402492	
        125.55000000	        -33.36984042	         11.96046367	        -30.88730313	          4.10553212	         54.58874201	         -8.57402492	
        125.56000000	        -27.88187210	         11.96046367	        -30.88730313	          4.10553212	         54.58874201	         -8.57402492	
        125.57000000	        -22.39390379	         11.96046367	        -30.88730313	          4.10553212	         54.58874201	         -8.57402492	
        125.58000000	        -16.90593547	         11.96046367	        -30.88730313	          4.10553212	         54.58874201	         -8.57402492	
        125.59000000	        -44.34577705	         16.86370047	        -30.88730313	          4.10553212	         54.58874201	         -8.57402492	
        125.60000000	        -38.85780873	         16.86370047	        -30.88730313	          4.10553212	         54.58874201	         -8.57402492	
